<?xml version="1.0" encoding="UTF-8"?>
<svg xmlns="http://www.w3.org/2000/svg" width="64" height="65" viewBox="0 0 64 65" fill="none">
  <path id="Vector" d="M62.4677 37.8462C62.7464 37.8462 63.0136 37.7333 63.2106 37.5324C63.4077 37.3315 63.5183 37.059 63.5183 36.7748V28.2042C63.5183 27.9201 63.4077 27.6476 63.2106 27.4467C63.0136 27.2457 62.7464 27.1329 62.4677 27.1329H56.6546C56.016 24.0604 54.8275 21.1343 53.1486 18.5012L57.2545 14.3048C57.4511 14.1039 57.5616 13.8317 57.5616 13.5479C57.5616 13.264 57.4511 12.9918 57.2545 12.791L51.3184 6.73795C51.1214 6.53744 50.8545 6.42482 50.5761 6.42482C50.2978 6.42482 50.0308 6.53744 49.8339 6.73795L45.7175 10.9236C43.1352 9.21172 40.2657 7.9998 37.2526 7.34861V1.42094C37.2526 1.13681 37.1419 0.864308 36.9448 0.663395C36.7478 0.462481 36.4806 0.349609 36.2019 0.349609H27.7969C27.5182 0.349609 27.251 0.462481 27.054 0.663395C26.8569 0.864308 26.7463 1.13681 26.7463 1.42094V7.34861C23.7332 7.9998 20.8636 9.21172 18.2813 10.9236L14.166 6.73688C13.969 6.53637 13.7021 6.42375 13.4237 6.42375C13.1454 6.42375 12.8784 6.53637 12.6814 6.73688L6.74538 12.7899C6.54874 12.9908 6.4383 13.263 6.4383 13.5468C6.4383 13.8306 6.54874 14.1028 6.74538 14.3037L10.8513 18.5001C9.17192 21.1335 7.98305 24.06 7.34424 27.1329H1.5311C1.25246 27.1329 0.985223 27.2457 0.788191 27.4467C0.59116 27.6476 0.480469 27.9201 0.480469 28.2042V36.7748C0.480469 37.059 0.59116 37.3315 0.788191 37.5324C0.985223 37.7333 1.25246 37.8462 1.5311 37.8462H7.34424C7.98285 40.9186 9.17136 43.8448 10.8502 46.4779L6.74433 50.6743C6.54769 50.8751 6.43725 51.1474 6.43725 51.4312C6.43725 51.715 6.54769 51.9872 6.74433 52.1881L12.6804 58.2411C12.8774 58.4416 13.1443 58.5542 13.4227 58.5542C13.701 58.5542 13.968 58.4416 14.1649 58.2411L18.2803 54.0543C20.8628 55.7668 23.7327 56.979 26.7463 57.6304V63.5581C26.7463 63.8422 26.8569 64.1147 27.054 64.3157C27.251 64.5166 27.5182 64.6294 27.7969 64.6294H36.2019C36.4806 64.6294 36.7478 64.5166 36.9448 64.3157C37.1419 64.1147 37.2526 63.8422 37.2526 63.5581V57.6304C40.2648 56.9767 43.1332 55.763 45.7143 54.0501L54.2864 62.791C55.2731 63.7883 56.607 64.3465 57.9962 64.3434C59.3854 64.3403 60.7169 63.7762 61.6992 62.7745C62.6816 61.7728 63.2348 60.4151 63.2378 58.9985C63.2409 57.5819 62.6935 56.2217 61.7155 55.2157L53.1434 46.4747C54.8232 43.8426 56.0134 40.9177 56.6546 37.8462H62.4677ZM60.2299 61.2762C59.9372 61.5747 59.5897 61.8115 59.2073 61.973C58.8248 62.1346 58.4149 62.2177 58.001 62.2177C57.587 62.2177 57.1771 62.1346 56.7947 61.973C56.4122 61.8115 56.0647 61.5747 55.772 61.2762L35.6546 40.7634C35.1659 40.2658 34.5855 39.8718 33.9468 39.6041C33.3081 39.3363 32.6238 39.2002 31.9332 39.2036C31.7141 39.2035 31.4952 39.2167 31.2776 39.2432C29.9145 39.4101 28.5321 39.2338 27.2514 38.7295C25.9707 38.2253 24.8307 37.4085 23.9314 36.3508C23.032 35.2931 22.4007 34.0267 22.0926 32.6625C21.7846 31.2983 21.8092 29.8779 22.1644 28.5256L26.7988 33.2523C26.9958 33.4532 27.263 33.5662 27.5416 33.5662H31.9994C32.2781 33.5662 32.5453 33.4533 32.7423 33.2524C32.9393 33.0515 33.05 32.779 33.05 32.4949V27.9439C33.05 27.6598 32.9393 27.3873 32.7422 27.1864L28.1121 22.4608C29.4379 22.0994 30.8304 22.0749 32.1677 22.3894C33.505 22.7039 34.7463 23.3479 35.783 24.2648C36.8198 25.1818 37.6203 26.3439 38.1146 27.6494C38.6089 28.9549 38.7819 30.3641 38.6184 31.7535C38.517 32.5641 38.5986 33.3876 38.857 34.1611C39.1154 34.9346 39.5437 35.6377 40.1092 36.2167L60.2299 56.7305C60.5226 57.029 60.7548 57.3833 60.9133 57.7733C61.0717 58.1633 61.1532 58.5812 61.1532 59.0033C61.1532 59.4255 61.0717 59.8434 60.9133 60.2334C60.7548 60.6234 60.5226 60.9777 60.2299 61.2762ZM41.599 34.7072C41.2591 34.3569 41.0024 33.9321 40.8483 33.465C40.6942 32.998 40.647 32.5013 40.7102 32.0128C40.9353 30.1085 40.6546 28.1775 39.8974 26.4217C39.1402 24.6659 37.9343 23.1498 36.4058 22.0319C34.8773 20.914 33.0824 20.2354 31.2086 20.0669C29.3349 19.8985 27.4512 20.2465 25.7545 21.0745C25.603 21.1486 25.4713 21.2587 25.3702 21.3954C25.2691 21.5322 25.2016 21.6916 25.1734 21.8605C25.1452 22.0293 25.1571 22.2026 25.2081 22.3657C25.2591 22.5289 25.3478 22.6772 25.4666 22.7983L30.9488 28.3874V31.4182H27.9765L22.4954 25.828C22.3767 25.7068 22.2312 25.6164 22.0712 25.5644C21.9112 25.5124 21.7413 25.5003 21.5757 25.529C21.4102 25.5578 21.2538 25.6266 21.1196 25.7297C20.9855 25.8328 20.8776 25.9671 20.8049 26.1215C19.9932 27.8512 19.6519 29.7714 19.8169 31.6815C19.9818 33.5916 20.6469 35.4215 21.7426 36.9799C22.8383 38.5382 24.3243 39.7679 26.0455 40.5403C27.7666 41.3128 29.6596 41.5996 31.5266 41.3709C32.0058 41.3066 32.4929 41.355 32.9509 41.5123C33.4089 41.6696 33.8255 41.9316 34.169 42.2783L39.5734 47.7881C36.0031 49.6273 31.9069 50.1089 28.0198 49.1464C24.1327 48.184 20.7092 45.8405 18.3636 42.5365C16.0181 39.2325 14.904 35.1843 15.2212 31.1183C15.5385 27.0523 17.2664 23.2346 20.0949 20.3505C22.9233 17.4663 26.6672 15.7043 30.6546 15.3808C34.6421 15.0573 38.6121 16.1933 41.8522 18.5851C45.0924 20.9769 47.3906 24.4678 48.3345 28.4315C49.2783 32.3952 48.8061 36.5721 47.0024 40.2127L41.599 34.7072ZM54.7508 36.5991C54.2442 39.556 53.1833 42.3856 51.6263 44.933L48.5542 41.8005C50.7583 37.7277 51.4462 32.9804 50.4915 28.4316C49.5367 23.8829 47.0034 19.8386 43.3575 17.0426C39.7116 14.2466 35.1983 12.8869 30.6477 13.2136C26.0971 13.5403 21.8151 15.5314 18.5894 18.8207C15.3637 22.11 13.411 26.4763 13.0907 31.1166C12.7703 35.7568 14.1037 40.3591 16.8457 44.0768C19.5877 47.7945 23.5538 50.3777 28.0147 51.3513C32.4755 52.3248 37.1311 51.6234 41.1252 49.3758L44.1972 52.5084C41.6991 54.0961 38.9241 55.1779 36.0244 55.6945C35.7811 55.7371 35.5602 55.8656 35.4006 56.0576C35.2409 56.2496 35.1527 56.4927 35.1513 56.7444V62.4868H28.8475V56.7444C28.8474 56.4918 28.7597 56.2474 28.5999 56.0543C28.4402 55.8612 28.2186 55.7319 27.9744 55.6892C24.6602 55.0976 21.5145 53.7683 18.7615 51.796C18.5591 51.651 18.3131 51.5834 18.0667 51.6052C17.8204 51.6269 17.5894 51.7366 17.4145 51.9149L13.4306 55.9699L8.97797 51.4296L12.9546 47.3671C13.1295 47.1888 13.237 46.9533 13.2583 46.702C13.2797 46.4508 13.2134 46.2 13.0712 45.9936C11.1363 43.1847 9.83265 39.9752 9.25324 36.5938C9.21122 36.3439 9.08364 36.1173 8.89319 35.9543C8.70274 35.7913 8.46176 35.7024 8.21311 35.7035H2.58173V29.2755H8.21311C8.46086 29.2754 8.70059 29.186 8.88995 29.0231C9.0793 28.8601 9.20612 28.6343 9.24799 28.3853C9.82813 25.0057 11.1317 21.7981 13.066 18.9908C13.2082 18.7844 13.2744 18.5336 13.2531 18.2824C13.2318 18.0311 13.1242 17.7956 12.9494 17.6173L8.97272 13.5548L13.4253 9.01453L17.4093 13.0695C17.5842 13.2478 17.8151 13.3575 18.0615 13.3792C18.3079 13.401 18.5539 13.3334 18.7562 13.1884C21.5109 11.2154 24.6583 9.88604 27.9744 9.29522C28.2195 9.25237 28.4417 9.12228 28.6016 8.92808C28.7615 8.73387 28.8486 8.48815 28.8475 8.2346V2.49227H35.1513V8.2346C35.1515 8.48723 35.2392 8.73168 35.3989 8.92477C35.5587 9.11786 35.7802 9.24717 36.0244 9.28986C39.3405 9.88069 42.488 11.21 45.2426 13.1831C45.4449 13.3281 45.6909 13.3956 45.9373 13.3739C46.1837 13.3521 46.4146 13.2425 46.5895 13.0642L50.5735 9.00917L55.0261 13.5495L51.0495 17.612C50.8746 17.7903 50.7671 18.0258 50.7457 18.277C50.7244 18.5282 50.7906 18.7791 50.9328 18.9854C52.8678 21.7943 54.1714 25.0038 54.7508 28.3853C54.7927 28.6343 54.9195 28.8601 55.1089 29.0231C55.2982 29.186 55.538 29.2754 55.7857 29.2755H61.4171V35.7035H55.7857C55.538 35.7037 55.2982 35.7931 55.1089 35.956C54.9195 36.1189 54.7927 36.3448 54.7508 36.5938V36.5991Z" fill="#1E293A"></path>
</svg>
